<?xml version="1.0" encoding="UTF-8" standalone="no"?>
<!-- Created with Inkscape (http://www.inkscape.org/) -->

<svg
   width="359.92224mm"
   height="245.64078mm"
   viewBox="0 0 359.92225 245.64078"
   version="1.1"
   id="svg22610"
   inkscape:version="1.3.2 (091e20e, 2023-11-25)"
   sodipodi:docname="gaur_deletion.svg"
   inkscape:export-filename="/Users/alexleonard/Documents/NatComm_bovine_final/DUSYS.png"
   inkscape:export-xdpi="150"
   inkscape:export-ydpi="150"
   xmlns:inkscape="http://www.inkscape.org/namespaces/inkscape"
   xmlns:sodipodi="http://sodipodi.sourceforge.net/DTD/sodipodi-0.dtd"
   xmlns="http://www.w3.org/2000/svg"
   xmlns:svg="http://www.w3.org/2000/svg">
  <sodipodi:namedview
     id="namedview22612"
     pagecolor="#ffffff"
     bordercolor="#666666"
     borderopacity="1.0"
     inkscape:pageshadow="2"
     inkscape:pageopacity="0.0"
     inkscape:pagecheckerboard="0"
     inkscape:document-units="mm"
     showgrid="false"
     inkscape:zoom="0.47118166"
     inkscape:cx="155.99079"
     inkscape:cy="927.45545"
     inkscape:window-width="2560"
     inkscape:window-height="1387"
     inkscape:window-x="1440"
     inkscape:window-y="25"
     inkscape:window-maximized="1"
     inkscape:current-layer="layer1"
     fit-margin-top="0"
     fit-margin-left="0"
     fit-margin-right="0"
     fit-margin-bottom="0"
     inkscape:showpageshadow="2"
     inkscape:deskcolor="#d1d1d1" />
  <defs
     id="defs22607">
    <inkscape:path-effect
       effect="spiro"
       id="path-effect1352"
       is_visible="true"
       lpeversion="1" />
  </defs>
  <g
     inkscape:label="Layer 1"
     inkscape:groupmode="layer"
     id="layer1"
     transform="translate(-1.2942153,-21.492793)">
    <path
       vector-effect="none"
       fill-rule="evenodd"
       d="m 207.77756,73.149252 c 3.51613,-3.128513 1.36557,-5.87465 5.8184,-7.397829"
       id="path1977"
       style="font-style:normal;font-weight:400;font-size:13px;font-family:'.AppleSystemUIFont';fill:none;stroke:#000000;stroke-width:3.03464;stroke-linecap:round;stroke-linejoin:bevel;stroke-opacity:0.871179" />
    <path
       vector-effect="none"
       fill-rule="evenodd"
       d="m 242.5383,58.755363 c 5.08,0.550492 3.88232,3.323114 7.68573,6.735683"
       id="path1985"
       style="font-style:normal;font-weight:400;font-size:13px;font-family:'.AppleSystemUIFont';fill:none;stroke:#000000;stroke-width:3.03464;stroke-linecap:round;stroke-linejoin:bevel;stroke-opacity:0.871179" />
    <path
       vector-effect="none"
       fill-rule="evenodd"
       d="m 272.13211,73.616374 c 3.35425,3.644 -9.89698,1.052618 -8.11869,5.67518"
       id="path1993"
       style="font-style:normal;font-weight:400;font-size:13px;font-family:'.AppleSystemUIFont';fill:none;stroke:#000000;stroke-width:3.03464;stroke-linecap:round;stroke-linejoin:bevel;stroke-opacity:0.871179" />
    <path
       vector-effect="none"
       fill-rule="evenodd"
       d="m 277.83115,99.216795 c -0.30347,5.491085 -7.96895,-4.588377 -10.99954,0"
       id="path2001-9"
       style="font-style:normal;font-weight:400;font-size:13px;font-family:'.AppleSystemUIFont';fill:none;stroke:#000000;stroke-width:3.03464;stroke-linecap:round;stroke-linejoin:bevel;stroke-opacity:0.871179" />
    <path
       vector-effect="none"
       fill-rule="evenodd"
       d="m 187.53783,187.13573 c -10.08509,0.80743 -11.18364,22.49739 -9.78365,32.51655"
       id="path2009"
       style="font-style:normal;font-weight:400;font-size:13px;font-family:'.AppleSystemUIFont';fill:none;stroke:#000000;stroke-width:3.03464;stroke-linecap:round;stroke-linejoin:bevel;stroke-opacity:0.871179" />
    <path
       vector-effect="none"
       fill-rule="evenodd"
       d="m 107.54275,138.00111 c 10.03657,1.26545 63.04765,-9.11807 67.88688,-18.00026"
       id="path2017"
       style="font-style:normal;font-weight:400;font-size:13px;font-family:'.AppleSystemUIFont';fill:none;stroke:#000000;stroke-width:3.03464;stroke-linecap:round;stroke-linejoin:bevel;stroke-opacity:0.871179" />
    <path
       vector-effect="none"
       fill-rule="evenodd"
       d="m 107.54275,138.00111 c 10.03657,1.26545 22.37136,14.81408 25.64675,24.38432"
       id="path2025-1"
       style="font-style:normal;font-weight:400;font-size:13px;font-family:'.AppleSystemUIFont';fill:none;stroke:#000000;stroke-width:3.03464;stroke-linecap:round;stroke-linejoin:bevel;stroke-opacity:0.871179" />
    <path
       vector-effect="none"
       fill-rule="evenodd"
       d="m 192.51131,85.297728 c 2.34072,-4.295034 4.32335,-2.409931 7.97706,-5.661634"
       id="path2033"
       style="font-style:normal;font-weight:400;font-size:13px;font-family:'.AppleSystemUIFont';fill:none;stroke:#000000;stroke-width:3.03464;stroke-linecap:round;stroke-linejoin:bevel;stroke-opacity:0.871179" />
    <path
       vector-effect="none"
       fill-rule="evenodd"
       d="m 192.51131,85.297728 c 2.60371,-4.779566 -1.12284,-6.699488 2.73725,-10.536873"
       id="path2041"
       style="font-style:normal;font-weight:400;font-size:13px;font-family:'.AppleSystemUIFont';fill:none;stroke:#000000;stroke-width:3.03464;stroke-linecap:round;stroke-linejoin:bevel;stroke-opacity:0.871179" />
    <path
       vector-effect="none"
       fill-rule="evenodd"
       d="m 202.91608,67.138633 c 3.81958,-3.796109 5.58575,0.355679 10.67988,-1.38721"
       id="path2049-2"
       style="font-style:normal;font-weight:400;font-size:13px;font-family:'.AppleSystemUIFont';fill:none;stroke:#000000;stroke-width:3.03464;stroke-linecap:round;stroke-linejoin:bevel;stroke-opacity:0.871179" />
    <path
       vector-effect="none"
       fill-rule="evenodd"
       d="m 223.32096,62.424843 c 4.80486,-1.643962 3.91265,-5.327597 8.96231,-4.780571"
       id="path2057"
       style="font-style:normal;font-weight:400;font-size:13px;font-family:'.AppleSystemUIFont';fill:none;stroke:#000000;stroke-width:3.03464;stroke-linecap:round;stroke-linejoin:bevel;stroke-opacity:0.871179" />
    <path
       vector-effect="none"
       fill-rule="evenodd"
       d="m 223.32096,62.424843 c 4.46497,-1.527837 3.86006,3.445721 8.54757,4.007141"
       id="path2065"
       style="font-style:normal;font-weight:400;font-size:13px;font-family:'.AppleSystemUIFont';fill:none;stroke:#000000;stroke-width:3.03464;stroke-linecap:round;stroke-linejoin:bevel;stroke-opacity:0.871179" />
    <path
       vector-effect="none"
       fill-rule="evenodd"
       d="m 241.07156,67.534159 c 4.65516,0.557371 5.66264,-5.174271 9.15247,-2.043113"
       id="path2073"
       style="font-style:normal;font-weight:400;font-size:13px;font-family:'.AppleSystemUIFont';fill:none;stroke:#000000;stroke-width:3.03464;stroke-linecap:round;stroke-linejoin:bevel;stroke-opacity:0.871179" />
    <path
       vector-effect="none"
       fill-rule="evenodd"
       d="m 257.48896,72.011067 c 3.63953,3.265461 4.72392,-9.169876 8.03571,-5.572601"
       id="path2081"
       style="font-style:normal;font-weight:400;font-size:13px;font-family:'.AppleSystemUIFont';fill:none;stroke:#000000;stroke-width:3.03464;stroke-linecap:round;stroke-linejoin:bevel;stroke-opacity:0.871179" />
    <path
       vector-effect="none"
       fill-rule="evenodd"
       d="m 257.48896,72.011067 c 3.63751,3.264668 4.76842,2.718409 6.52446,7.280487"
       id="path2089"
       style="font-style:normal;font-weight:400;font-size:13px;font-family:'.AppleSystemUIFont';fill:none;stroke:#000000;stroke-width:3.03464;stroke-linecap:round;stroke-linejoin:bevel;stroke-opacity:0.871179" />
    <path
       vector-effect="none"
       fill-rule="evenodd"
       d="m 267.81078,89.158184 c 1.89563,4.928658 10.8458,-4.896088 10.55446,0.376899"
       id="path2097"
       style="font-style:normal;font-weight:400;font-size:13px;font-family:'.AppleSystemUIFont';fill:none;stroke:#000000;stroke-width:3.03464;stroke-linecap:round;stroke-linejoin:bevel;stroke-opacity:0.871179" />
    <path
       vector-effect="none"
       fill-rule="evenodd"
       d="m 267.81078,89.158184 c 1.81469,4.716012 1.80662,5.842476 -0.97917,10.059008"
       id="path2105"
       style="font-style:normal;font-weight:400;font-size:13px;font-family:'.AppleSystemUIFont';fill:none;stroke:#000000;stroke-width:3.03464;stroke-linecap:round;stroke-linejoin:bevel;stroke-opacity:0.871179" />
    <path
       vector-effect="none"
       fill-rule="evenodd"
       d="m 207.57251,158.96034 c -8.10046,6.05714 0.62716,26.52111 -9.45592,27.32854"
       id="path2113"
       style="font-style:normal;font-weight:400;font-size:13px;font-family:'.AppleSystemUIFont';fill:none;stroke:#000000;stroke-width:3.03464;stroke-linecap:round;stroke-linejoin:bevel;stroke-opacity:0.871179" />
    <path
       vector-effect="none"
       fill-rule="evenodd"
       d="m 207.57251,158.96034 c -8.10046,6.05714 -8.46461,9.2332 -18.53962,10.15146"
       id="path2121"
       style="font-style:normal;font-weight:400;font-size:13px;font-family:'.AppleSystemUIFont';fill:none;stroke:#000000;stroke-width:3.03464;stroke-linecap:round;stroke-linejoin:bevel;stroke-opacity:0.871179" />
    <path
       vector-effect="none"
       fill-rule="evenodd"
       d="m 179.46368,169.98397 c -10.07298,0.91808 -3.10949,39.64915 -1.7095,49.66831"
       id="path2129"
       style="font-style:normal;font-weight:400;font-size:13px;font-family:'.AppleSystemUIFont';fill:none;stroke:#000000;stroke-width:3.03464;stroke-linecap:round;stroke-linejoin:bevel;stroke-opacity:0.871179" />
    <path
       vector-effect="none"
       fill-rule="evenodd"
       d="m 136.94638,173.35828 c 3.27538,9.57023 39.40781,36.27484 40.8078,46.294"
       id="path2137"
       style="font-style:normal;font-weight:400;font-size:13px;font-family:'.AppleSystemUIFont';fill:none;stroke:#000000;stroke-width:3.03464;stroke-linecap:round;stroke-linejoin:bevel;stroke-opacity:0.871179" />
    <path
       vector-effect="none"
       fill-rule="nonzero"
       d="m 137.97413,160.74734 3.75687,10.97283 -9.57126,3.2762 -3.75486,-10.97285 9.56925,-3.27618"
       id="path2145"
       style="font-style:normal;font-weight:400;font-size:13px;font-family:'.AppleSystemUIFont';fill:#e36f2b;fill-opacity:1;stroke:none;stroke-width:2.02309;stroke-linecap:square;stroke-linejoin:bevel" />
    <path
       vector-effect="none"
       fill-rule="nonzero"
       d="m 6.12452,119.77291 c 43.509009,5.2796 58.575998,7.65918 102.05145,13.21011 -0.42145,3.3454 -0.84293,6.69079 -1.26441,10.03615 l -16.982493,-2.83548 c 0.211085,-1.67262 0.42217,-3.34526 0.633228,-5.01788 -0.205,1.67344 -0.410025,3.34687 -0.615024,5.02031 l -43.615821,-5.33794 0.612986,-5.02029 c -0.202962,1.67357 -0.405976,3.34714 -0.608938,5.02071 L 4.904606,129.81453 Z"
       id="path2157"
       style="font-style:normal;font-weight:400;font-size:13px;font-family:'.AppleSystemUIFont';fill:#b4b4b4;fill-opacity:1;stroke:none;stroke-width:2.02309;stroke-linecap:square;stroke-linejoin:bevel"
       sodipodi:nodetypes="ccccccccccc" />
    <path
       vector-effect="none"
       fill-rule="nonzero"
       d="m 165.69725,123.93065 22.37337,-41.053172 8.88138,4.840446 -22.37338,41.053146 -8.88137,-4.84042"
       id="path2169"
       style="font-style:normal;font-weight:400;font-size:13px;font-family:'.AppleSystemUIFont';fill:#b4b4b4;fill-opacity:1;stroke:none;stroke-width:2.02309;stroke-linecap:square;stroke-linejoin:bevel" />
    <path
       vector-effect="none"
       fill-rule="nonzero"
       d="m 191.68184,71.173714 7.66953,-7.622196 7.1314,7.174256 -7.66953,7.622223 -7.1314,-7.174283"
       id="path2181"
       style="font-style:normal;font-weight:400;font-size:13px;font-family:'.AppleSystemUIFont';fill:#e36f2b;fill-opacity:1;stroke:none;stroke-width:2.02309;stroke-linecap:square;stroke-linejoin:bevel" />
    <path
       vector-effect="none"
       fill-rule="nonzero"
       d="m 211.95927,60.965798 9.72503,-3.326368 3.27334,9.570826 -9.725,3.326579 -3.27337,-9.571037"
       id="path2193"
       style="font-style:normal;font-weight:400;font-size:13px;font-family:'.AppleSystemUIFont';fill:#b4b4b4;fill-opacity:1;stroke:none;stroke-width:2.02309;stroke-linecap:square;stroke-linejoin:bevel" />
    <path
       vector-effect="none"
       fill-rule="nonzero"
       d="m 232.46937,61.41006 9.20507,1.102175 -1.20372,10.043847 -9.20306,-1.102386 1.20171,-10.043636"
       id="path2205"
       style="font-style:normal;font-weight:400;font-size:13px;font-family:'.AppleSystemUIFont';fill:#b4b4b4;fill-opacity:1;stroke:none;stroke-width:2.02309;stroke-linecap:square;stroke-linejoin:bevel" />
    <path
       vector-effect="none"
       fill-rule="nonzero"
       d="m 253.60059,61.726687 7.26694,6.520021 -6.75714,7.528507 -7.26491,-6.520021 6.75511,-7.528507"
       id="path2217"
       style="font-style:normal;font-weight:400;font-size:13px;font-family:'.AppleSystemUIFont';fill:#b4b4b4;fill-opacity:1;stroke:none;stroke-width:2.02309;stroke-linecap:square;stroke-linejoin:bevel" />
    <path
       vector-effect="none"
       fill-rule="nonzero"
       d="m 268.7333,77.475216 3.79735,9.86663 -9.43975,3.632649 -3.79735,-9.866603 9.43975,-3.632676"
       id="path2229"
       style="font-style:normal;font-weight:400;font-size:13px;font-family:'.AppleSystemUIFont';fill:#b4b4b4;fill-opacity:1;stroke:none;stroke-width:2.02309;stroke-linecap:square;stroke-linejoin:bevel" />
    <path
       vector-effect="none"
       fill-rule="nonzero"
       d="m 271.05176,102.0046 -17.23472,26.0934 c -0.21039,0.32067 -0.45923,0.61542 -0.73641,0.87902 v 0 l -22.83058,21.69282 c -0.14364,0.13676 -0.29538,0.26522 -0.45519,0.38417 v 0 l -24.48549,18.30697 -6.05714,-8.10149 24.4855,-18.30694 3.02855,4.05064 -3.48374,-3.66646 22.83058,-21.69298 3.48377,3.66662 -4.22019,-2.78738 17.23472,-26.093421 8.44034,5.575031"
       id="path2241"
       style="font-style:normal;font-weight:400;font-size:13px;font-family:'.AppleSystemUIFont';fill:#b4b4b4;fill-opacity:1;stroke:none;stroke-width:2.02309;stroke-linecap:square;stroke-linejoin:bevel" />
    <path
       vector-effect="none"
       fill-rule="nonzero"
       d="m 189.49213,174.1487 -9.56922,0.87214 -0.91847,-10.07377 9.56921,-0.87214 0.91848,10.07377"
       id="path2253"
       style="font-style:normal;font-weight:400;font-size:13px;font-family:'.AppleSystemUIFont';fill:#b4b4b4;fill-opacity:1;stroke:none;stroke-width:2.02309;stroke-linecap:square;stroke-linejoin:bevel" />
    <path
       vector-effect="none"
       fill-rule="nonzero"
       d="m 182.76335,218.95229 c 2.1041,15.09655 4.22367,30.19118 6.31812,45.28892 -3.35759,0.31326 -6.71524,0.62548 -10.07298,0.93669 1.67915,-0.15577 3.35833,-0.31155 5.03748,-0.46733 -1.66971,0.23266 -3.33944,0.46531 -5.00917,0.69797 -2.09728,-15.01943 -4.19452,-30.03887 -6.29182,-45.0583 3.33946,-0.46598 6.6789,-0.93198 10.01837,-1.39795 z"
       id="path2265"
       sodipodi:nodetypes="ccccccccc"
       style="font-style:normal;font-weight:400;font-size:13px;font-family:'.AppleSystemUIFont';fill:#b4b4b4;fill-opacity:1;stroke:none;stroke-width:2.02309;stroke-linecap:square;stroke-linejoin:bevel" />
    <path
       vector-effect="none"
       fill-rule="nonzero"
       d="m 198.52119,191.33042 -10.58077,0.84707 -0.80721,-10.08329 10.58079,-0.84708 0.80719,10.0833"
       id="path2277"
       style="font-style:normal;font-weight:400;font-size:13px;font-family:'.AppleSystemUIFont';fill:#e36f2b;fill-opacity:1;stroke:none;stroke-width:2.02309;stroke-linecap:square;stroke-linejoin:bevel" />
    <path
       vector-effect="none"
       fill-rule="nonzero"
       d="m 197.12599,75.857765 7.28919,-6.486631 6.72476,7.556447 -7.28922,6.486631 -6.72473,-7.556447"
       id="path2289"
       style="font-style:normal;font-weight:400;font-size:13px;font-family:'.AppleSystemUIFont';fill:#b4b4b4;fill-opacity:1;stroke:none;stroke-width:2.02309;stroke-linecap:square;stroke-linejoin:bevel" />
    <path
       vector-effect="none"
       fill-rule="nonzero"
       d="m 232.82746,52.615892 10.25708,1.111277 -1.09046,10.056574 -10.25503,-1.111277 1.08841,-10.056574"
       id="path2301"
       style="font-style:normal;font-weight:400;font-size:13px;font-family:'.AppleSystemUIFont';fill:#e36f2b;fill-opacity:1;stroke:none;stroke-width:2.02309;stroke-linecap:square;stroke-linejoin:bevel" />
    <path
       vector-effect="none"
       fill-rule="nonzero"
       d="m 269.24717,63.013144 6.60741,7.177749 -7.44296,6.850988 -6.60742,-7.177934 7.44297,-6.850803"
       id="path2313"
       style="font-style:normal;font-weight:400;font-size:13px;font-family:'.AppleSystemUIFont';fill:#e36f2b;fill-opacity:1;stroke:none;stroke-width:2.02309;stroke-linecap:square;stroke-linejoin:bevel" />
    <path
       vector-effect="none"
       fill-rule="nonzero"
       d="m 283.41487,89.814059 -0.53409,9.681713 -10.09928,-0.557768 0.53412,-9.681713 10.09925,0.557768"
       id="path2325"
       style="font-style:normal;font-weight:400;font-size:13px;font-family:'.AppleSystemUIFont';fill:#e36f2b;fill-opacity:1;stroke:none;stroke-width:2.02309;stroke-linecap:square;stroke-linejoin:bevel" />
    <path
       style="fill:none;fill-opacity:1;stroke:#a473db;stroke-width:1;stroke-linecap:butt;stroke-linejoin:miter;stroke-miterlimit:4;stroke-dasharray:none;stroke-opacity:1"
       d="m 1.320709,143.10095 c 0,0 73.609141,-3.90585 104.474631,12.77419 22.59465,12.21038 36.70219,36.71802 49.72811,58.85254 9.44986,16.05783 19.80916,52.26836 19.80916,52.26836 v 0 0 0"
       id="path1037"
       sodipodi:nodetypes="caaaaac" />
    <path
       style="fill:none;stroke:#349784;stroke-width:1;stroke-linecap:butt;stroke-linejoin:miter;stroke-miterlimit:4;stroke-dasharray:none;stroke-opacity:1"
       d="m 10.762675,105.20259 c 0,0 90.948305,28.5607 132.008305,12.22299 31.65245,-12.59446 35.22459,-65.775306 67.47092,-76.760377 20.90594,-7.121842 47.82942,-1.146174 65.0263,12.711911 14.09652,11.359662 25.45244,32.199755 21.51248,49.869796 -7.86434,35.27021 -59.44313,42.98895 -81.16067,71.8712 -8.67464,11.53644 -15.68682,24.97234 -18.57894,39.11357 -3.26809,15.97959 1.95567,48.89196 1.95567,48.89196"
       id="path1599"
       sodipodi:nodetypes="caaaaaac" />
    <path
       style="fill:none;stroke:#ca1147;stroke-width:1;stroke-linecap:butt;stroke-linejoin:miter;stroke-miterlimit:4;stroke-dasharray:none;stroke-opacity:1"
       d="m 142.77098,117.42558 c 12.09068,-2.03665 20.45131,14.47932 31.45683,12.17681 23.75143,-4.96914 27.44,-49.794284 51.65952,-51.290372 10.89965,-0.673294 25.50666,9.132833 25.91275,20.045702 1.30454,35.05702 -71.92045,35.89468 -78.22716,70.40442 -3.06627,16.77834 19.11262,28.9788 23.46815,45.46953"
       id="path1599-3"
       sodipodi:nodetypes="caaaac" />
    <text
       xml:space="preserve"
       style="font-size:14.1111px;line-height:1.25;font-family:sans-serif;fill:#a46ddb;fill-opacity:1;stroke:none;stroke-width:0.264583"
       x="64.241631"
       y="211.98062"
       id="text2616"><tspan
         sodipodi:role="line"
         id="tspan2614"
         style="font-style:italic;font-size:14.1111px;fill:#a46ddb;fill-opacity:1;stroke:none;stroke-width:0.264583"
         x="64.241631"
         y="211.98062">B. gaurus</tspan></text>
    <text
       xml:space="preserve"
       style="font-size:14.1111px;line-height:1.25;font-family:sans-serif;fill:#349784;fill-opacity:1;stroke-width:0.264583"
       x="64.241631"
       y="90.979248"
       id="text2616-6"><tspan
         sodipodi:role="line"
         id="tspan2614-0"
         style="font-style:italic;font-size:14.1111px;fill:#349784;fill-opacity:1;stroke-width:0.264583"
         x="64.241631"
         y="90.979248">B. t. indicus</tspan></text>
    <text
       xml:space="preserve"
       style="font-size:14.1111px;line-height:1.25;font-family:sans-serif;fill:#cc184d;fill-opacity:1;stroke-width:0.264583"
       x="64.241631"
       y="107.53857"
       id="text2616-78"><tspan
         sodipodi:role="line"
         id="tspan2614-1"
         style="font-style:italic;font-size:14.1111px;fill:#cc184d;fill-opacity:1;stroke-width:0.264583"
         x="64.241631"
         y="107.53857">B. t. taurus</tspan></text>
    <text
       xml:space="preserve"
       style="font-size:9.87778px;line-height:1.25;font-family:sans-serif;fill:#2629eb;fill-opacity:1;stroke-width:0.264583"
       x="213.88516"
       y="-9.9998493"
       id="text7928"
       transform="rotate(10.297439)"><tspan
         sodipodi:role="line"
         id="tspan7926"
         style="font-style:italic;font-weight:bold;font-size:9.87778px;fill:#000000;fill-opacity:1;stroke-width:0.264583"
         x="213.88516"
         y="-9.9998493">TAS2R46</tspan></text>
    <text
       xml:space="preserve"
       style="font-size:9.87778px;line-height:1.25;font-family:sans-serif;fill:#2629eb;fill-opacity:1;stroke-width:0.264583"
       x="202.99602"
       y="-185.20001"
       id="text7928-0"
       transform="rotate(49.84864)"><tspan
         sodipodi:role="line"
         id="tspan7926-4"
         style="font-style:italic;font-weight:bold;font-size:9.87778px;fill:#000000;fill-opacity:1;stroke-width:0.264583"
         x="202.99602"
         y="-185.20001">ENSBTAG00000001336</tspan></text>
  </g>
</svg>
