<?xml version="1.0" encoding="UTF-8" standalone="no"?>
<!-- Created with Inkscape (http://www.inkscape.org/) -->

<svg
   width="257.68015mm"
   height="62.42366mm"
   viewBox="0 0 257.68015 62.42366"
   version="1.1"
   id="svg1"
   inkscape:version="1.3.2 (091e20e, 2023-11-25)"
   sodipodi:docname="wisent_bandage.svg"
   xmlns:inkscape="http://www.inkscape.org/namespaces/inkscape"
   xmlns:sodipodi="http://sodipodi.sourceforge.net/DTD/sodipodi-0.dtd"
   xmlns="http://www.w3.org/2000/svg"
   xmlns:svg="http://www.w3.org/2000/svg">
  <sodipodi:namedview
     id="namedview1"
     pagecolor="#ffffff"
     bordercolor="#666666"
     borderopacity="1.0"
     inkscape:showpageshadow="2"
     inkscape:pageopacity="0.0"
     inkscape:pagecheckerboard="0"
     inkscape:deskcolor="#d1d1d1"
     inkscape:document-units="mm"
     inkscape:zoom="0.34355544"
     inkscape:cx="471.53961"
     inkscape:cy="113.5188"
     inkscape:window-width="1440"
     inkscape:window-height="847"
     inkscape:window-x="0"
     inkscape:window-y="25"
     inkscape:window-maximized="1"
     inkscape:current-layer="layer1" />
  <defs
     id="defs1" />
  <g
     inkscape:label="Layer 1"
     inkscape:groupmode="layer"
     id="layer1"
     transform="translate(22.402078,-123.34533)">
    <path
       vector-effect="none"
       fill-rule="evenodd"
       d="m 177.53518,142.59659 c 1.6638,0.17591 -2.07413,-3.33189 -1.27005,-4.79952"
       id="path9"
       style="font-style:normal;font-weight:400;font-size:13px;font-family:'.AppleSystemUIFont';fill:none;stroke:#000000;stroke-width:0.501957;stroke-linecap:round;stroke-linejoin:bevel;stroke-opacity:0.705882" />
    <path
       vector-effect="none"
       fill-rule="evenodd"
       d="m 119.28647,151.32207 c -1.01501,-1.32763 -2.89058,-7.18148 -1.22019,-7.30678"
       id="path12"
       style="font-style:normal;font-weight:400;font-size:13px;font-family:'.AppleSystemUIFont';fill:none;stroke:#000000;stroke-width:0.501957;stroke-linecap:round;stroke-linejoin:bevel;stroke-opacity:0.705882" />
    <path
       vector-effect="none"
       fill-rule="evenodd"
       d="m 112.2695,144.73884 c 1.67238,-0.0443 -1.84306,6.07885 -2.35217,7.67131"
       id="path15"
       style="font-style:normal;font-weight:400;font-size:13px;font-family:'.AppleSystemUIFont';fill:none;stroke:#000000;stroke-width:0.501957;stroke-linecap:round;stroke-linejoin:bevel;stroke-opacity:0.705882" />
    <path
       vector-effect="none"
       fill-rule="evenodd"
       d="m 64.311964,150.84115 c 1.426335,-0.87514 1.799207,-6.22076 3.454744,-5.98146"
       id="path18"
       style="font-style:normal;font-weight:400;font-size:13px;font-family:'.AppleSystemUIFont';fill:none;stroke:#000000;stroke-width:0.501957;stroke-linecap:round;stroke-linejoin:bevel;stroke-opacity:0.705882" />
    <path
       vector-effect="none"
       fill-rule="evenodd"
       d="m 112.2695,144.73884 c 1.67238,-0.0443 4.12639,-0.59825 5.79678,-0.72355"
       id="path21"
       style="font-style:normal;font-weight:400;font-size:13px;font-family:'.AppleSystemUIFont';fill:none;stroke:#000000;stroke-width:0.501957;stroke-linecap:round;stroke-linejoin:bevel;stroke-opacity:0.705882" />
    <path
       vector-effect="none"
       fill-rule="evenodd"
       d="m 177.53518,142.59659 c 1.6638,0.17591 3.72463,-0.008 5.38405,-0.22004"
       id="path24"
       style="font-style:normal;font-weight:400;font-size:13px;font-family:'.AppleSystemUIFont';fill:none;stroke:#000000;stroke-width:0.501957;stroke-linecap:round;stroke-linejoin:bevel;stroke-opacity:0.705882" />
    <path
       vector-effect="none"
       fill-rule="evenodd"
       d="m 182.11572,136.05904 c 1.05835,1.29601 -0.85591,6.52937 0.80351,6.31751"
       id="path27"
       style="font-style:normal;font-weight:400;font-size:13px;font-family:'.AppleSystemUIFont';fill:none;stroke:#000000;stroke-width:0.501957;stroke-linecap:round;stroke-linejoin:bevel;stroke-opacity:0.705882" />
    <path
       vector-effect="none"
       fill-rule="evenodd"
       d="m 50.916684,143.72022 c 1.661936,-0.18787 -1.120587,5.59224 0.120196,6.71508"
       id="path30"
       style="font-style:normal;font-weight:400;font-size:13px;font-family:'.AppleSystemUIFont';fill:none;stroke:#000000;stroke-width:0.501957;stroke-linecap:round;stroke-linejoin:bevel;stroke-opacity:0.705882" />
    <path
       vector-effect="none"
       fill-rule="evenodd"
       d="m 50.916684,143.72022 c 1.661936,-0.18787 15.710891,0.98719 17.38481,1.02857"
       id="path33"
       style="font-style:normal;font-weight:400;font-size:13px;font-family:'.AppleSystemUIFont';fill:none;stroke:#000000;stroke-width:0.501957;stroke-linecap:round;stroke-linejoin:bevel;stroke-opacity:0.705882"
       sodipodi:nodetypes="cc" />
    <path
       vector-effect="none"
       fill-rule="evenodd"
       d="m 117.94802,142.47389 c 7.04044,-0.64521 14.11766,-0.55197 21.1782,-0.77923 10.33889,-0.21732 20.67311,-0.61821 31.00559,-1.01625 2.01499,-0.058 4.02961,-0.0885 6.0283,0.21926 0.3682,0.58576 1.19958,1.22027 1.27972,1.77571 -0.62985,0.37666 -1.12976,1.19106 -1.84722,1.27253 -3.47766,-0.44688 -6.99173,-0.0742 -10.48298,0.009 -13.80972,0.62205 -27.63551,0.82383 -41.45637,1.21813 -1.82706,0.0648 -3.64708,0.26002 -5.47114,0.38032 -0.0781,-1.02675 -0.15625,-2.05349 -0.23438,-3.08024 m 0.11826,1.54141 c -0.43973,-0.45373 -1.45726,-1.09645 -1.53735,-1.43253 0.75698,-0.0565 1.75258,-0.39111 1.48424,0.74735 0.0564,0.74134 0.11282,1.48267 0.16923,2.22401 -0.61561,-0.0141 -2.13042,0.4269 -1.06145,-0.43977 0.31511,-0.36635 0.63022,-0.73271 0.94533,-1.09906 z"
       id="path45"
       style="font-style:normal;font-weight:400;font-size:13px;font-family:'.AppleSystemUIFont';fill:#dcdcdc;fill-opacity:1;stroke:none;stroke-width:0.334639;stroke-linecap:square;stroke-linejoin:bevel" />
    <path
       vector-effect="none"
       fill-rule="evenodd"
       d="m -22.213482,137.82095 c 23.9805678,1.51518 33.293454,2.91975 57.290059,4.12725 4.274238,0.15948 8.554092,0.68396 12.830567,0.55832 1.182245,-0.48739 1.985549,0.34374 2.820868,1.06346 0.04533,0.56227 -0.9504,2.04104 -1.877842,1.9394 -3.588405,0.38848 -7.204195,-0.19312 -10.799629,-0.29704 -20.928867,-1.108 -27.170152,-2.20323 -48.084412,-3.54358 -4.122764,-0.25265 -8.245553,-0.50493 -12.368207,-0.75938"
       id="path54"
       style="font-style:normal;font-weight:400;font-size:13px;font-family:'.AppleSystemUIFont';fill:#dcdcdc;fill-opacity:1;stroke:none;stroke-width:0.334639;stroke-linecap:square;stroke-linejoin:bevel"
       sodipodi:nodetypes="cccccccc" />
    <path
       vector-effect="none"
       fill-rule="evenodd"
       d="m 0.78138533,141.12242 2.61888727,0.15291 3.3382079,0.18645 3.3382075,0.18644 2.624476,0.14392"
       id="path56"
       style="font-style:normal;font-weight:400;font-size:13px;font-family:'.AppleSystemUIFont';fill:none;fill-opacity:1;stroke:#333432;stroke-width:3.0914;stroke-linecap:butt;stroke-linejoin:bevel;stroke-opacity:1" />
    <path
       vector-effect="none"
       fill-rule="evenodd"
       d="m 67.987344,143.32837 c 1.919675,0.27148 3.831876,0.63111 5.778886,0.58013 8.977379,0.13246 17.956529,-0.10428 26.93037,-0.3522 3.3301,-0.0861 6.6572,-0.2526 9.98753,-0.32409 0.52845,0.50218 1.05691,1.00436 1.58537,1.50655 -0.54195,0.50612 -1.00412,1.19105 -1.59464,1.58829 -7.91019,0.25018 -15.81883,0.53197 -23.721494,0.64344 -5.282659,0.0378 -10.576614,0.19126 -15.855237,-0.0712 -1.183213,-0.17014 -2.366424,-0.34027 -3.549637,-0.51041 0.146232,-1.02017 0.292464,-2.04034 0.438696,-3.0605 m -0.220636,1.53132 c -0.436895,-0.58399 -0.87379,-1.16797 -1.310685,-1.75196 0.443656,0.17824 1.407613,-0.0331 1.504975,0.40444 -0.137449,0.9589 -0.274901,1.9178 -0.41235,2.8767 -0.369106,-0.13401 -1.561441,-0.0582 -1.382636,-0.33185 0.533565,-0.39911 1.067132,-0.79822 1.600696,-1.19733 z"
       id="path64"
       style="font-style:normal;font-weight:400;font-size:13px;font-family:'.AppleSystemUIFont';fill:#dcdcdc;fill-opacity:1;stroke:none;stroke-width:0.334639;stroke-linecap:square;stroke-linejoin:bevel" />
    <path
       vector-effect="none"
       fill-rule="evenodd"
       d="m 174.91093,137.05105 c 0.47591,-0.855 0.93305,-1.72147 1.42072,-2.56931 0.2347,-0.3834 0.64018,-0.58734 0.9861,-0.85901 0.62055,-0.44588 1.23376,-0.90515 1.8589,-1.34266 0.2402,-0.0868 0.47666,-0.20326 0.7192,-0.27154 0.24618,0.0383 0.50364,0.0478 0.74298,0.10356 0.2131,0.16621 0.45635,0.30028 0.65155,0.48555 0.34878,0.4287 0.69756,0.85739 1.04634,1.28608 -0.0737,0.7251 -0.14735,1.4502 -0.22103,2.1753 -0.7251,-0.0737 -1.4502,-0.14735 -2.1753,-0.22103 -0.0862,-0.13329 -0.17488,-0.24745 -0.30048,-0.0833 -0.27312,0.2065 -0.56649,0.39518 -0.82713,0.61266 -0.39697,0.72454 -0.79394,1.44907 -1.1909,2.17361 -0.90366,-0.49663 -1.80732,-0.99326 -2.71098,-1.48989 m 1.3542,0.74601 c -0.69936,0.20359 -1.39872,0.40718 -2.09808,0.61077 0.24796,-0.45226 0.49592,-0.90452 0.74388,-1.35678 0.90366,0.49663 1.80732,0.99326 2.71098,1.48989 -0.24868,0.4514 -0.49735,0.9028 -0.74602,1.3542 -0.20358,-0.69936 -0.40717,-1.39872 -0.61076,-2.09808 z"
       id="path73"
       style="font-style:normal;font-weight:400;font-size:13px;font-family:'.AppleSystemUIFont';fill:#dcdcdc;fill-opacity:1;stroke:none;stroke-width:0.334639;stroke-linecap:square;stroke-linejoin:bevel" />
    <path
       vector-effect="none"
       fill-rule="evenodd"
       d="m 182.72426,140.84227 c 2.86338,-0.2775 5.68109,-0.83773 8.50821,-1.343 14.02445,-2.04491 28.17315,-3.86491 42.50709,-5.25185 0.38675,0.57656 1.96464,1.03561 1.42855,1.70321 -0.58715,0.59926 -0.94597,1.62693 -1.94555,1.45227 -17.6225,1.74672 -21.76287,2.92048 -39.37456,4.8675 -3.4151,0.3669 -6.74318,1.26945 -10.16897,1.56632 -1.0367,0.38347 -0.52417,-1.2375 -0.80629,-1.83032 -0.0497,-0.38798 -0.0993,-0.77596 -0.14899,-1.16394 m 0.19497,1.53427 c -0.32769,-0.43293 -2.16226,-1.27691 -1.32152,-1.39112 1.11307,-0.473 1.32576,0.21761 1.3005,1.21575 1.8e-4,0.7578 0.67932,2.04095 -0.59688,1.81112 -1.40683,0.43583 0.0967,-0.79184 0.37125,-1.31707 0.0822,-0.10623 0.16443,-0.21245 0.24665,-0.31868 z"
       id="path82"
       style="font-style:normal;font-weight:400;font-size:13px;font-family:'.AppleSystemUIFont';fill:#dcdcdc;fill-opacity:1;stroke:none;stroke-width:0.334639;stroke-linecap:square;stroke-linejoin:bevel"
       sodipodi:nodetypes="ccccccccccccccc" />
    <path
       vector-effect="none"
       fill-rule="evenodd"
       d="m 52.074694,149.29118 c 0.678711,0.60225 1.338512,1.237 2.028953,1.81908 0.732897,0.23304 1.461303,0.49647 2.196994,0.7106 0.796119,-0.0256 1.596225,-0.0267 2.389876,-0.0674 0.802481,-0.25288 1.614405,-0.4849 2.411034,-0.75071 0.361791,-0.22262 0.723581,-0.44525 1.085372,-0.66787 0.708346,0.16876 1.416695,0.33753 2.125041,0.50629 -0.168909,0.70992 -0.337818,1.41984 -0.506726,2.12975 -0.547905,0.31019 -1.053629,0.70331 -1.635138,0.94844 -1.002439,0.29248 -2.000105,0.63398 -3.010117,0.91104 -1.04872,0.0526 -2.100811,0.0638 -3.150612,0.0853 -0.570553,-0.0367 -1.092565,-0.311 -1.638653,-0.46161 -0.629323,-0.22972 -1.293013,-0.37889 -1.896366,-0.67065 -0.639227,-0.48827 -1.201309,-1.07122 -1.808474,-1.59884 -0.222313,-0.20172 -0.444622,-0.40345 -0.666935,-0.60517 0.691876,-0.76275 1.383755,-1.52549 2.075631,-2.28824 m -1.037814,1.14412 c -0.03615,-0.72817 -0.07229,-1.45634 -0.108438,-2.18451 0.382084,0.3468 0.764168,0.6936 1.146252,1.04039 -0.691876,0.76275 -1.383755,1.52549 -2.075631,2.28824 -0.381371,-0.34594 -0.762745,-0.69188 -1.144117,-1.03782 0.727312,-0.0354 1.454622,-0.0709 2.181934,-0.1063 z"
       id="path91-8"
       style="font-style:normal;font-weight:400;font-size:13px;font-family:'.AppleSystemUIFont';fill:#dcdcdc;fill-opacity:1;stroke:none;stroke-width:0.334639;stroke-linecap:square;stroke-linejoin:bevel" />
    <path
       vector-effect="none"
       fill-rule="evenodd"
       d="m 53.853553,152.65506 2.183755,0.71849 2.872543,-0.0707 1.526667,-0.47134"
       id="path93-5"
       style="font-style:normal;font-weight:400;font-size:13px;font-family:'.AppleSystemUIFont';fill:none;stroke:#258dcf;stroke-width:3.0914;stroke-linecap:butt;stroke-linejoin:bevel;stroke-opacity:1" />
    <path
       vector-effect="none"
       fill-rule="evenodd"
       d="m 111.38733,152.88174 c -0.99936,2.98012 -1.92891,6.01497 -2.17993,9.16422 -0.15694,1.2915 -0.0419,2.60685 0.0432,3.90273 0.34556,1.16102 0.42386,2.44422 1.20241,3.42518 0.43495,0.88015 1.07185,1.58087 1.94294,2.03926 0.69091,0.65401 1.63846,0.61906 2.52173,0.73311 0.90091,0.0988 1.74928,-0.40123 2.59264,-0.67184 0.87029,-0.66463 1.85266,-1.28578 2.40222,-2.27158 0.9452,-1.14151 1.40174,-2.57063 1.82977,-3.96381 0.20186,-1.30092 0.4638,-2.61427 0.28269,-3.93528 -5e-4,-1.45695 -0.45957,-2.85899 -0.90342,-4.22962 -0.60338,-1.19351 -1.12124,-2.4608 -2.02967,-3.46089 -0.16635,-0.56611 0.10139,-1.15958 0.12132,-1.74204 -0.13266,-0.91867 0.87617,-0.34426 1.4274,-0.36839 1.17242,-0.0872 1.58213,1.2482 2.1867,2.03452 0.65357,1.42274 1.5141,2.77543 1.75663,4.35081 0.46103,1.29064 0.51968,2.6519 0.5714,4.00546 0.13608,1.4608 -0.24416,2.89741 -0.45964,4.3316 -0.42774,1.21319 -0.80183,2.4724 -1.44105,3.59649 -0.81778,1.06749 -1.39513,2.35735 -2.57151,3.09996 -0.94641,0.89941 -2.03488,1.5987 -3.31851,1.89475 -1.274,0.63133 -2.65582,0.48835 -4.01033,0.2602 -1.13751,0.0321 -2.06006,-0.62592 -2.92566,-1.27533 -0.80936,-0.49484 -1.67781,-1.01163 -2.053,-1.93395 -0.66965,-1.07526 -1.49873,-2.1019 -1.67658,-3.39586 -0.44086,-1.40755 -0.67169,-2.85355 -0.64173,-4.32881 -0.0968,-1.89453 0.21333,-3.78215 0.52525,-5.64502 0.47643,-2.22522 1.12279,-4.40703 1.8598,-6.55928 0.98156,0.31454 1.96313,0.62909 2.94469,0.94363 m -1.46999,-0.4716 c 0.56353,-0.19602 1.69879,-1.06653 1.88264,-0.81465 -0.22985,0.64772 -0.2618,1.68013 -1.14882,1.05034 -0.82752,-0.44493 -2.81834,-0.29229 -1.91217,-1.6278 0.15719,-1.40049 0.86072,1.10648 1.17835,1.39211 z"
       id="path101"
       style="font-style:normal;font-weight:400;font-size:13px;font-family:'.AppleSystemUIFont';fill:#dcdcdc;fill-opacity:1;stroke:none;stroke-width:0.334639;stroke-linecap:square;stroke-linejoin:bevel" />
    <text
       xml:space="preserve"
       style="font-size:7.22518px;line-height:1.25;font-family:sans-serif;stroke-width:0.270944;stroke-linecap:butt;stroke-linejoin:round"
       x="166.67781"
       y="128.83478"
       id="text111"><tspan
         sodipodi:role="line"
         id="tspan111"
         style="stroke-width:0.270944"
         x="166.67781"
         y="128.83478">769 bp</tspan></text>
    <text
       xml:space="preserve"
       style="font-size:7.22518px;line-height:1.25;font-family:sans-serif;stroke-width:0.270944;stroke-linecap:butt;stroke-linejoin:round"
       x="100.3473"
       y="184.31549"
       id="text111-6"><tspan
         sodipodi:role="line"
         id="tspan111-5"
         style="stroke-width:0.270944"
         x="100.3473"
         y="184.31549">5,803 bp</tspan></text>
    <g
       id="g2"
       transform="matrix(0.36125891,0,0,0.36125891,-236.12508,14.916596)"
       style="stroke-linecap:butt;stroke-linejoin:round">
      <text
         xml:space="preserve"
         style="font-size:20px;line-height:1.25;font-family:sans-serif;stroke-width:0.75;stroke-linecap:butt;stroke-linejoin:round"
         x="771.32294"
         y="407.29306"
         id="text111-67"><tspan
           sodipodi:role="line"
           id="tspan111-8"
           style="stroke-width:0.75"
           x="771.32294"
           y="407.29306">1,580 bp</tspan></text>
    </g>
    <text
       xml:space="preserve"
       style="font-size:7.22518px;line-height:1.25;font-family:sans-serif;stroke-width:0.270944;stroke-linecap:butt;stroke-linejoin:round"
       x="36.043522"
       y="170.27185"
       id="text112"><tspan
         sodipodi:role="line"
         id="tspan112"
         style="stroke-width:0.270944"
         x="36.043522"
         y="170.27185"><tspan
   style="font-style:italic;stroke-width:0.270944"
   id="tspan113">Bison</tspan> specific</tspan></text>
    <text
       xml:space="preserve"
       style="font-size:7.22518px;line-height:1.25;font-family:sans-serif;stroke-width:0.270944;stroke-linecap:butt;stroke-linejoin:round"
       x="83.162979"
       y="137.91562"
       id="text114"><tspan
         sodipodi:role="line"
         id="tspan114"
         style="stroke-width:0.270944"
         x="83.162979"
         y="137.91562"><tspan
   style="font-style:italic;stroke-width:0.270944"
   id="tspan115">Bos taurus</tspan> specific</tspan></text>
    <text
       xml:space="preserve"
       style="font-size:7.22518px;line-height:1.25;font-family:sans-serif;stroke-width:0.270944;stroke-linecap:butt;stroke-linejoin:round"
       x="149.38217"
       y="151.92328"
       id="text114-6"><tspan
         sodipodi:role="line"
         id="tspan114-4"
         style="stroke-width:0.270944"
         x="149.38217"
         y="151.92328"><tspan
   style="font-style:italic;stroke-width:0.270944"
   id="tspan115-6">Bos gaurus</tspan> specific</tspan></text>
    <text
       xml:space="preserve"
       style="font-size:7.22518px;line-height:1.25;font-family:sans-serif;fill:#333432;fill-opacity:1;stroke:none;stroke-width:0.270944;stroke-linecap:butt;stroke-linejoin:round;stroke-opacity:1"
       x="-5.319459"
       y="135.34265"
       id="text116"><tspan
         sodipodi:role="line"
         id="tspan116"
         style="fill:#333432;fill-opacity:1;stroke:none;stroke-width:0.270944;stroke-opacity:1"
         x="-5.319459"
         y="135.34265">exon 1</tspan></text>
    <text
       xml:space="preserve"
       style="font-size:7.22518px;line-height:1.25;font-family:sans-serif;fill:#258dcf;fill-opacity:1;stroke-width:0.270944;stroke-linecap:butt;stroke-linejoin:round"
       x="21.590548"
       y="152.91983"
       id="text117"><tspan
         sodipodi:role="line"
         id="tspan117"
         style="fill:#258dcf;fill-opacity:1;stroke-width:0.270944"
         x="21.590548"
         y="152.91983">exon 2</tspan></text>
  </g>
</svg>
